<?xml version="1.0" encoding="UTF-8"?>
<svg version="1.1" xmlns="http://www.w3.org/2000/svg" width="1024" height="1024">
<path d="M0 0 C337.92 0 675.84 0 1024 0 C1024 337.92 1024 675.84 1024 1024 C686.08 1024 348.16 1024 0 1024 C0 686.08 0 348.16 0 0 Z " fill="#F4F4F4" transform="translate(0,0)"/>
<path d="M0 0 C2.64916571 0.58708082 5.3049491 1.14003448 7.96044922 1.69775391 C23.05408247 4.94753503 37.54479975 9.31628003 52.11181641 14.41357422 C57.12940324 16.15559445 62.17156345 17.82333877 67.21435547 19.49072266 C67.21435547 20.15072266 67.21435547 20.81072266 67.21435547 21.49072266 C67.91818359 21.60287109 68.62201172 21.71501953 69.34716797 21.83056641 C96.45859404 28.07284298 124.12860151 50.48137808 143.70654297 69.19384766 C146.03605132 71.41677507 148.42037788 73.5305209 150.89013672 75.59619141 C155.68661907 79.66516261 159.34047251 84.56090444 163.21435547 89.49072266 C164.00970703 90.45880859 164.80505859 91.42689453 165.62451172 92.42431641 C176.54264063 106.00709168 184.89465793 121.27776046 191.21435547 137.49072266 C191.47555176 138.13138672 191.73674805 138.77205078 192.00585938 139.43212891 C200.50307097 160.55181974 203.39789348 185.53801927 203.34716797 208.15478516 C203.34812469 209.11347504 203.34908142 210.07216492 203.35006714 211.05990601 C203.35074141 213.06142239 203.34894027 215.06294106 203.34472656 217.06445312 C203.33930782 220.14278959 203.34472714 223.22098405 203.35107422 226.29931641 C203.35041446 228.25113965 203.34913543 230.2029628 203.34716797 232.15478516 C203.3491922 233.07756256 203.35121643 234.00033997 203.353302 234.95108032 C203.32934513 241.375733 203.32934513 241.375733 202.21435547 242.49072266 C199.47866093 242.59154348 196.76820747 242.62686867 194.03198242 242.62011719 C192.73542567 242.62270318 192.73542567 242.62270318 191.41267586 242.62534142 C188.50931084 242.62971802 185.60600261 242.62672051 182.70263672 242.62353516 C180.65088379 242.62463471 178.59913102 242.62606535 176.54737854 242.62780762 C171.01927342 242.63072936 165.49119771 242.62638746 159.96309662 242.61969757 C156.54190573 242.61574007 153.12071636 242.6132178 149.69952393 242.61102295 C120.91259667 242.58976232 92.1262723 242.50434047 63.34139633 242.14284515 C61.08712542 242.1156958 58.83284142 242.0921034 56.57852173 242.06939697 C52.45429235 242.02700024 48.33051468 241.96744279 44.20654297 241.90478516 C43.00308731 241.89322388 41.79963165 241.8816626 40.55970764 241.86975098 C39.47749435 241.84989136 38.39528107 241.83003174 37.28027344 241.80957031 C36.34279266 241.79624664 35.40531189 241.78292297 34.43942261 241.76919556 C32.21435547 241.49072266 32.21435547 241.49072266 30.21435547 239.49072266 C29.12397427 235.74825298 29.08251987 232.02572213 28.97509766 228.15893555 C28.34508479 207.3580107 22.71418283 185.0914028 7.90185547 169.67822266 C-5.46560194 157.18695154 -21.21776933 149.80713299 -38.78564453 145.49072266 C-40.56261719 145.04599609 -40.56261719 145.04599609 -42.37548828 144.59228516 C-56.9138046 141.22832193 -71.49015156 140.13438629 -86.36962891 140.17504883 C-88.78479753 140.17822154 -91.1987495 140.15457136 -93.61376953 140.12939453 C-116.61091693 140.03619242 -138.47832839 144.93021697 -155.62939453 161.18603516 C-164.36338558 170.68566827 -170.4601025 182.38223031 -170.78564453 195.49072266 C-170.83591797 196.47556641 -170.88619141 197.46041016 -170.93798828 198.47509766 C-171.39986014 213.92009254 -167.16606748 226.66875931 -156.66064453 238.24072266 C-138.96110572 254.45526615 -113.81178064 262.50377293 -91.55517578 270.18212891 C-88.3218108 271.3045924 -85.11527448 272.47705301 -81.91064453 273.67822266 C-77.44215917 275.31915355 -72.92713131 276.57407964 -68.32470703 277.77978516 C-66.13894812 278.39179765 -64.08090421 279.09408797 -61.97314453 279.92822266 C-57.20963826 281.80416018 -52.28253822 283.08247892 -47.34814453 284.42822266 C-44.78242014 285.1934387 -42.35429332 286.00701045 -39.86376953 286.96337891 C-35.81110237 288.5156086 -31.70459782 289.73144129 -27.53564453 290.92822266 C-15.82533664 294.35950281 -4.27801478 298.27996583 7.28369141 302.17602539 C8.78002842 302.67960646 10.27644635 303.18294717 11.77294922 303.68603516 C12.85749138 304.05072151 12.85749138 304.05072151 13.96394348 304.42277527 C19.45795457 306.2604228 24.97861854 307.9827559 30.53027344 309.63916016 C33.04772212 310.4378559 35.46474106 311.35081474 37.90185547 312.36572266 C42.46070847 314.25417956 47.09264246 315.8237761 51.77685547 317.36572266 C63.78720952 321.32651736 75.77465625 325.30058364 87.40576172 330.28759766 C89.27954032 331.09027333 91.1626117 331.87159036 93.05419922 332.63134766 C100.95861434 335.81433361 108.53568434 339.5176027 116.10693359 343.41259766 C118.20318449 344.48500775 120.30948749 345.53536937 122.41748047 346.58447266 C133.06482133 351.95980532 142.68152955 358.33819474 152.21435547 365.49072266 C152.83971191 365.95768555 153.46506836 366.42464844 154.109375 366.90576172 C194.3689981 397.17308189 222.36057845 439.63050844 229.88647461 490.00195312 C231.45782956 501.92927435 231.41315185 513.85704216 231.40185547 525.86572266 C231.40191589 526.8470517 231.40197632 527.82838074 231.40203857 528.83944702 C231.39037162 542.11332472 231.21496653 555.26881561 229.47460938 568.44873047 C229.23219353 570.35076246 229.05463955 572.26075088 228.88232422 574.17041016 C227.0385808 592.36471332 221.71919489 610.84205589 214.21435547 627.49072266 C213.74384766 628.61220703 213.27333984 629.73369141 212.78857422 630.88916016 C204.52189021 649.80202035 192.78256951 666.05552236 179.21435547 681.49072266 C178.62525391 682.19068359 178.03615234 682.89064453 177.42919922 683.61181641 C167.85814961 694.92305685 157.1181026 704.70664581 145.21435547 713.49072266 C144.32200195 714.15031982 144.32200195 714.15031982 143.41162109 714.82324219 C132.46224484 722.86955409 121.21852988 730.10519051 109.21435547 736.49072266 C108.07095703 737.11978516 106.92755859 737.74884766 105.74951172 738.39697266 C94.94197536 744.31808473 83.85409051 749.44464431 72.29272461 753.72045898 C70.12423966 754.52412044 67.96422488 755.34820959 65.80419922 756.17431641 C56.0402386 759.8741459 46.37460462 763.04894716 36.21435547 765.49072266 C34.5242301 765.90600097 32.83412737 766.3213714 31.14404297 766.73681641 C29.33443365 767.17679858 27.52453848 767.61560675 25.71435547 768.05322266 C24.89660645 768.25125488 24.07885742 768.44928711 23.23632812 768.65332031 C10.27136229 771.73126064 -2.68361553 774.06456498 -15.91064453 775.61572266 C-16.63329498 775.70132446 -17.35594543 775.78692627 -18.10049438 775.87512207 C-29.99783727 777.27348275 -41.80221765 778.33128572 -53.78564453 778.49072266 C-54.43063904 778.50061218 -55.07563354 778.51050171 -55.74017334 778.52069092 C-84.52097208 778.954672 -113.40994442 778.87054722 -141.78564453 773.49072266 C-143.53677057 773.17593968 -145.28808101 772.86218117 -147.03955078 772.54931641 C-157.74329711 770.60615699 -168.27096661 768.28010872 -178.78564453 765.49072266 C-180.06052734 765.16072266 -181.33541016 764.83072266 -182.64892578 764.49072266 C-204.19606407 758.85633307 -204.19606407 758.85633307 -213.37548828 754.54150391 C-216.29534694 753.26850232 -219.27009979 752.26648816 -222.28564453 751.24072266 C-227.9235036 749.26349304 -233.32001274 746.97629049 -238.72314453 744.42822266 C-239.76921875 743.93563965 -239.76921875 743.93563965 -240.83642578 743.43310547 C-245.27626541 741.30461913 -249.52659478 738.96029624 -253.78564453 736.49072266 C-254.94580078 735.86294922 -256.10595703 735.23517578 -257.30126953 734.58837891 C-275.89428825 724.51487761 -292.82070967 712.45565752 -307.78564453 697.49072266 C-309.36188516 696.1075976 -310.94529015 694.73259587 -312.53564453 693.36572266 C-317.93163713 688.51887974 -322.37150028 683.23124951 -326.78564453 677.49072266 C-327.2579248 676.88276855 -327.73020508 676.27481445 -328.21679688 675.6484375 C-334.99638042 666.90192428 -341.20270971 658.0575964 -346.78564453 648.49072266 C-347.39666016 647.49685547 -347.39666016 647.49685547 -348.02001953 646.48291016 C-350.89608899 641.72633374 -352.81622161 636.66584857 -354.78564453 631.49072266 C-355.20072266 630.41822266 -355.61580078 629.34572266 -356.04345703 628.24072266 C-357.2987005 624.99362578 -358.54713419 621.74423884 -359.78564453 618.49072266 C-360.14686401 617.55474243 -360.14686401 617.55474243 -360.51538086 616.59985352 C-365.00875433 604.83766072 -368.24219339 592.99823503 -369.78564453 580.49072266 C-369.95475342 579.29455322 -370.1238623 578.09838379 -370.2980957 576.8659668 C-372.14931738 563.04609316 -372.01210719 549.28525025 -371.91064453 535.36572266 C-371.90058718 532.9425493 -371.89146624 530.51937187 -371.88330078 528.09619141 C-371.86152298 522.22761116 -371.82826698 516.35918666 -371.78564453 510.49072266 C-349.24651877 510.46739604 -326.70739499 510.44974465 -304.16825962 510.43891048 C-293.70372172 510.43374702 -283.2391913 510.42670337 -272.7746582 510.4152832 C-263.65725018 510.4053379 -254.53984757 510.3988696 -245.42243427 510.39663416 C-240.59170577 510.39532679 -235.76099278 510.3922393 -230.93026924 510.3849926 C-226.38890766 510.3782348 -221.84756806 510.3761052 -217.30620193 510.37761497 C-215.63439884 510.37733854 -213.96259505 510.37533199 -212.29079628 510.37151718 C-210.018386 510.36658367 -207.74606007 510.36772308 -205.47364807 510.37046814 C-204.19880837 510.36954635 -202.92396868 510.36862455 -201.61049747 510.36767483 C-198.78564453 510.49072266 -198.78564453 510.49072266 -197.78564453 511.49072266 C-197.60584589 513.01966871 -197.48566074 514.55570962 -197.39111328 516.09228516 C-195.53251535 543.06805275 -188.02516455 567.67939873 -168.78564453 587.49072266 C-168.17205078 588.17779297 -167.55845703 588.86486328 -166.92626953 589.57275391 C-153.16462774 604.48119918 -129.4745839 615.34267892 -109.60986328 617.99853516 C-106.78564453 618.49072266 -106.78564453 618.49072266 -103.99438477 619.46826172 C-70.23578006 630.22539757 -24.04770534 625.29301118 7.46435547 610.67822266 C24.84635191 601.60634404 37.08497399 585.97654649 43.21435547 567.49072266 C46.69935263 549.25476268 44.33184133 532.92701761 33.87841797 517.52197266 C23.0438206 503.74387196 4.31026643 496.11181622 -11.59814453 489.80322266 C-12.29642365 489.52246887 -12.99470276 489.24171509 -13.71414185 488.95245361 C-22.78530818 485.30686555 -31.8487346 481.9126293 -41.31298828 479.42041016 C-43.8291128 478.74680202 -46.23684283 478.02340056 -48.69580078 477.18603516 C-52.95975096 475.74045976 -57.25696718 474.41632547 -61.56689453 473.11572266 C-62.62204002 472.79729904 -62.62204002 472.79729904 -63.69850159 472.47244263 C-65.89393607 471.81093516 -68.08972311 471.1506118 -70.28564453 470.49072266 C-87.99490579 465.16897065 -87.99490579 465.16897065 -95.78564453 462.49072266 C-97.95365807 461.7551908 -100.12233542 461.02166942 -102.29150391 460.28955078 C-103.72721554 459.80498204 -105.16213713 459.31806511 -106.59619141 458.82861328 C-112.38182407 456.88295687 -118.22981668 455.20725943 -124.1027832 453.54614258 C-130.12712158 451.81971137 -136.11320265 449.97345119 -142.09814453 448.11572266 C-142.72805298 447.9206311 -143.35796143 447.72553955 -144.00695801 447.52453613 C-152.07185963 445.02307647 -160.08079615 442.41588214 -168.01269531 439.51855469 C-172.77965023 437.79310725 -177.59372332 436.36203833 -182.47314453 434.99072266 C-188.97569278 433.15108889 -195.03796397 430.78764243 -201.21142578 428.01416016 C-205.08057137 426.36501614 -208.98959706 425.01659215 -212.97314453 423.67822266 C-239.53800013 414.53743306 -264.75228337 399.35885517 -285.91064453 380.97119141 C-287.78171427 379.35688531 -289.69784546 377.79293852 -291.66064453 376.29150391 C-292.36189453 375.69724609 -293.06314453 375.10298828 -293.78564453 374.49072266 C-293.78564453 373.83072266 -293.78564453 373.17072266 -293.78564453 372.49072266 C-294.67896484 372.10013672 -294.67896484 372.10013672 -295.59033203 371.70166016 C-297.94457496 370.40305641 -299.1891615 369.16593109 -300.91064453 367.11572266 C-301.51521484 366.39771484 -302.11978516 365.67970703 -302.74267578 364.93994141 C-303.75394531 363.72757812 -303.75394531 363.72757812 -304.78564453 362.49072266 C-305.55263672 361.61029297 -306.31962891 360.72986328 -307.10986328 359.82275391 C-317.23426816 348.04538497 -325.35374294 335.46572164 -331.90380859 321.38134766 C-332.71711514 319.63764725 -333.55872181 317.90722138 -334.40283203 316.17822266 C-343.37487544 296.8395177 -346.35560944 275.47958907 -348.78564453 254.49072266 C-348.87185059 253.74951172 -348.95805664 253.00830078 -349.046875 252.24462891 C-349.50726521 247.99623193 -349.70505215 243.76026592 -349.78564453 239.49072266 C-349.8061084 238.50700684 -349.82657227 237.52329102 -349.84765625 236.50976562 C-350.12480954 220.71660919 -349.71493085 205.1721286 -347.78564453 189.49072266 C-347.68380859 188.64074707 -347.58197266 187.79077148 -347.47705078 186.91503906 C-345.61972115 171.88156078 -342.79531086 156.6787581 -336.73486328 142.71337891 C-335.71174799 140.3176892 -334.87695178 137.8933631 -334.03564453 135.42822266 C-326.26004706 114.12725641 -314.24680282 94.8730832 -299.78564453 77.49072266 C-299.06505859 76.54197266 -298.34447266 75.59322266 -297.60205078 74.61572266 C-296.70292969 73.56384766 -296.70292969 73.56384766 -295.78564453 72.49072266 C-295.12564453 72.49072266 -294.46564453 72.49072266 -293.78564453 72.49072266 C-293.55748047 71.93771484 -293.32931641 71.38470703 -293.09423828 70.81494141 C-288.61592697 62.8609258 -279.56139111 56.26578667 -272.52001953 50.66650391 C-270.71734308 49.2320885 -268.935208 47.77141631 -267.17626953 46.28369141 C-249.97479255 31.75404147 -230.24946209 21.41178901 -209.66064453 12.49072266 C-208.85739746 12.14130615 -208.05415039 11.79188965 -207.2265625 11.43188477 C-144.50136078 -14.9506919 -65.67935412 -14.7443448 0 0 Z " fill="#101010" transform="translate(585.78564453125,119.50927734375)"/>
<path d="M0 0 C1.258125 -0.020625 2.51625 -0.04125 3.8125 -0.0625 C4.52019531 -0.07410156 5.22789062 -0.08570313 5.95703125 -0.09765625 C8 0 8 0 11 1 C11 1.66 11 2.32 11 3 C-20.35 3 -51.7 3 -84 3 C-84 2.67 -84 2.34 -84 2 C-42.42 1.505 -42.42 1.505 0 1 C0 0.67 0 0.34 0 0 Z " fill="#535353" transform="translate(772,359)"/>
<path d="M0 0 C13.07264462 -0.06667354 26.12058295 0.12257039 39.1875 0.5 C40.93163399 0.54841657 42.67577463 0.59659451 44.41992188 0.64453125 C48.6133624 0.76028883 52.80670156 0.87920936 57 1 C56.67 1.66 56.34 2.32 56 3 C50.91781982 3.05036465 45.83579257 3.0861626 40.75341797 3.10986328 C39.03334007 3.11976899 37.31327828 3.13329725 35.59326172 3.15087891 C23.57615726 3.2704171 11.91327096 2.59744087 0 1 C0 0.67 0 0.34 0 0 Z " fill="#202121" transform="translate(476,895)"/>
<path d="M0 0 C0.33 0 0.66 0 1 0 C1 3.3 1 6.6 1 10 C1.66 10 2.32 10 3 10 C3 24.52 3 39.04 3 54 C2.01 53.67 1.02 53.34 0 53 C0 35.51 0 18.02 0 0 Z " fill="#2A2A2A" transform="translate(786,307)"/>
<path d="M0 0 C0.66 0 1.32 0 2 0 C2.12661845 13.70790854 1.88467593 27.31911868 1 41 C0.34 41 -0.32 41 -1 41 C-1.02950823 36.60418124 -1.04696682 32.2083886 -1.0625 27.8125 C-1.07087891 26.58595703 -1.07925781 25.35941406 -1.08789062 24.09570312 C-1.10921323 16.01443416 -0.7501017 8.04646864 0 0 Z " fill="#393939" transform="translate(237,318)"/>
<path d="M0 0 C0.66 0.33 1.32 0.66 2 1 C-1.08290155 5.22797927 -1.08290155 5.22797927 -3 7 C-5.8125 7.375 -5.8125 7.375 -8 7 C-8 7.66 -8 8.32 -8 9 C-8.99 9 -9.98 9 -11 9 C-11 8.34 -11 7.68 -11 7 C-11.66 6.67 -12.32 6.34 -13 6 C-10.87959258 4.96966118 -8.75352092 3.95097146 -6.625 2.9375 C-5.44164062 2.36902344 -4.25828125 1.80054688 -3.0390625 1.21484375 C-2.03617187 0.81394531 -1.03328125 0.41304687 0 0 Z " fill="#242425" transform="translate(378,131)"/>
<path d="M0 0 C0.66796875 1.7734375 0.66796875 1.7734375 1 4 C-0.07421875 5.8515625 -0.07421875 5.8515625 -1.6875 7.625 C-2.20699219 8.21539062 -2.72648437 8.80578125 -3.26171875 9.4140625 C-5.0703504 11.06418486 -6.76855046 12.01796774 -9 13 C-7.50923566 9.7173068 -5.61379679 7.06922559 -3.375 4.25 C-2.74335938 3.45078125 -2.11171875 2.6515625 -1.4609375 1.828125 C-0.97882813 1.22484375 -0.49671875 0.6215625 0 0 Z " fill="#29292A" transform="translate(283,201)"/>
<path d="M0 0 C3.11198065 1.49836105 6.0534615 3.19933758 9 5 C8.67 6.65 8.34 8.3 8 10 C6.33333333 8.33333333 4.66666667 6.66666667 3 5 C2.401875 4.443125 1.80375 3.88625 1.1875 3.3125 C0 2 0 2 0 0 Z " fill="#1C1C1C" transform="translate(592,286)"/>
<path d="M0 0 C0 0.33 0 0.66 0 1 C-1.65 1.33 -3.3 1.66 -5 2 C-5.33 2.99 -5.66 3.98 -6 5 C-7.98 5 -9.96 5 -12 5 C-9.28085049 -1.02097391 -6.0998139 -0.0983841 0 0 Z " fill="#181919" transform="translate(524,112)"/>
<path d="M0 0 C1.22517308 5.66642551 1.09228867 11.23708518 1 17 C0.67 17 0.34 17 0 17 C-0.06058594 16.31292969 -0.12117187 15.62585938 -0.18359375 14.91796875 C-0.26738281 14.01691406 -0.35117187 13.11585938 -0.4375 12.1875 C-0.51871094 11.29417969 -0.59992187 10.40085937 -0.68359375 9.48046875 C-0.93489767 6.87256441 -0.93489767 6.87256441 -2 4 C-2.99 3.67 -3.98 3.34 -5 3 C-5 2.34 -5 1.68 -5 1 C-1.125 0 -1.125 0 0 0 Z " fill="#2D2D2D" transform="translate(787,300)"/>
<path d="M0 0 C0.33 0 0.66 0 1 0 C1.48066535 1.89545392 1.95946743 3.79138039 2.4375 5.6875 C2.83775391 7.27111328 2.83775391 7.27111328 3.24609375 8.88671875 C3.89897932 11.5828317 4.47941193 14.2757576 5 17 C4.34 17 3.68 17 3 17 C0.70657253 11.10261508 -0.34548714 6.33393082 0 0 Z " fill="#222222" transform="translate(390,657)"/>
<path d="M0 0 C0.33 1.32 0.66 2.64 1 4 C1.66 4 2.32 4 3 4 C2.34 7.3 1.68 10.6 1 14 C0.34 14 -0.32 14 -1 14 C-1.08333357 9.1666528 -0.95261487 4.76307437 0 0 Z " fill="#242424" transform="translate(239,303)"/>
<path d="M0 0 C3.71888239 0.50712033 6.73454239 1.11608215 10 3 C9.34 3 8.68 3 8 3 C8 3.66 8 4.32 8 5 C5.03 4.505 5.03 4.505 2 4 C2 3.01 2 2.02 2 1 C1.34 0.67 0.68 0.34 0 0 Z " fill="#292929" transform="translate(475,738)"/>
<path d="M0 0 C0 0.33 0 0.66 0 1 C-5.96674616 2.32594359 -11.92583615 2.0884587 -18 2 C-18 1.67 -18 1.34 -18 1 C-11.69661213 -0.3792223 -6.3503077 -1.41117949 0 0 Z " fill="#CDCDCD" transform="translate(557,741)"/>
<path d="M0 0 C4.82034262 0.41317222 6.90992611 2.38019915 10 6 C10 6.66 10 7.32 10 8 C6.41726669 6.34643078 3.19026533 4.32019297 0 2 C0 1.34 0 0.68 0 0 Z " fill="#1B1C1C" transform="translate(303,836)"/>
<path d="M0 0 C0.33 0 0.66 0 1 0 C1.33 1.98 1.66 3.96 2 6 C2.33 6 2.66 6 3 6 C2.67 9.3 2.34 12.6 2 16 C1.67 16 1.34 16 1 16 C0.14701624 12.32612505 -0.10789471 8.9552607 -0.0625 5.1875 C-0.05347656 4.21167969 -0.04445313 3.23585938 -0.03515625 2.23046875 C-0.02355469 1.49441406 -0.01195312 0.75835937 0 0 Z " fill="#484949" transform="translate(615,343)"/>
<path d="M0 0 C1.15518918 0.90484792 2.29885406 1.8244206 3.4375 2.75 C4.07558594 3.26046875 4.71367187 3.7709375 5.37109375 4.296875 C7.18810554 6.19667629 7.60423197 7.43586908 8 10 C6.84481082 9.09515208 5.70114594 8.1755794 4.5625 7.25 C3.60537109 6.48429688 3.60537109 6.48429688 2.62890625 5.703125 C0.81189446 3.80332371 0.39576803 2.56413092 0 0 Z " fill="#232424" transform="translate(268,805)"/>
<path d="M0 0 C2.97 0.33 5.94 0.66 9 1 C9 1.66 9 2.32 9 3 C9.99 3.33 10.98 3.66 12 4 C7.97007218 3.44687265 3.97977076 2.8441938 0 2 C0 1.34 0 0.68 0 0 Z " fill="#333334" transform="translate(418,886)"/>
<path d="M0 0 C0.66 0.33 1.32 0.66 2 1 C1.67 1.99 1.34 2.98 1 4 C-2.5625 5.6875 -2.5625 5.6875 -6 7 C-6 6.34 -6 5.68 -6 5 C-5.34 5 -4.68 5 -4 5 C-4 4.01 -4 3.02 -4 2 C-2.125 0.9375 -2.125 0.9375 0 0 Z " fill="#171717" transform="translate(691,854)"/>
<path d="M0 0 C1.12894876 0.93274109 2.25300876 1.87140122 3.375 2.8125 C4.00148438 3.33457031 4.62796875 3.85664063 5.2734375 4.39453125 C7 6 7 6 9 9 C8.01 9 7.02 9 6 9 C6 8.34 6 7.68 6 7 C5.38125 6.773125 4.7625 6.54625 4.125 6.3125 C1.38589791 4.62070165 0.94975528 3.00755839 0 0 Z " fill="#1F2020" transform="translate(286,485)"/>
<path d="M0 0 C3.34373475 0.55728913 6.03312999 1.35173889 9 3 C9 3.66 9 4.32 9 5 C5.65626525 4.44271087 2.96687001 3.64826111 0 2 C0 1.34 0 0.68 0 0 Z " fill="#2B2B2C" transform="translate(352,864)"/>
<path d="M0 0 C0 0.66 0 1.32 0 2 C1.65 2 3.3 2 5 2 C5 2.33 5 2.66 5 3 C0.1666528 3.08333357 -4.23692563 2.95261487 -9 2 C-9 1.67 -9 1.34 -9 1 C-5.94152152 0.45627049 -3.11227195 0 0 0 Z " fill="#565757" transform="translate(466,893)"/>
<path d="M0 0 C1.51754003 2.41021064 2.02316906 3.68335622 1.8125 6.5625 C0.95027053 9.14918841 0.07804617 10.28335317 -2 12 C-1.33333333 8 -0.66666667 4 0 0 Z " fill="#BFBFC0" transform="translate(810,712)"/>
<path d="M0 0 C1.88325912 3.76651824 2.40869661 5.01520804 2 9 C1.01 10.485 1.01 10.485 0 12 C-0.66 12 -1.32 12 -2 12 C-1.34 8.04 -0.68 4.08 0 0 Z " fill="#232323" transform="translate(630,680)"/>
<path d="M0 0 C0.33 0.99 0.66 1.98 1 3 C-0.4375 5.1875 -0.4375 5.1875 -2 7 C-2.66 6.67 -3.32 6.34 -4 6 C-4 5.01 -4 4.02 -4 3 C-2 1.3125 -2 1.3125 0 0 Z " fill="#1E1E1F" transform="translate(321,164)"/>
<path d="M0 0 C0.99 0.33 1.98 0.66 3 1 C2.67 2.32 2.34 3.64 2 5 C0.68 5.33 -0.64 5.66 -2 6 C-1.34 4.02 -0.68 2.04 0 0 Z " fill="#DBDBDC" transform="translate(796,754)"/>
<path d="M0 0 C0.33 1.32 0.66 2.64 1 4 C-0.65 5.32 -2.3 6.64 -4 8 C-4 4.09161134 -2.49432124 2.88405893 0 0 Z " fill="#1F1F1F" transform="translate(617,710)"/>
<path d="M0 0 C2.31 1.98 4.62 3.96 7 6 C6.01 6.33 5.02 6.66 4 7 C2 5.1875 2 5.1875 0 3 C0 2.01 0 1.02 0 0 Z " fill="#323232" transform="translate(414,705)"/>
<path d="M0 0 C-0.66 0.66 -1.32 1.32 -2 2 C-4.1640625 1.9765625 -4.1640625 1.9765625 -6.625 1.625 C-7.44226563 1.51414062 -8.25953125 1.40328125 -9.1015625 1.2890625 C-9.72804688 1.19367187 -10.35453125 1.09828125 -11 1 C-11 0.67 -11 0.34 -11 0 C-3.57142857 -1.28571429 -3.57142857 -1.28571429 0 0 Z " fill="#C5C6C6" transform="translate(605,890)"/>
<path d="M0 0 C0 0.66 0 1.32 0 2 C1.98 2 3.96 2 6 2 C6 2.33 6 2.66 6 3 C1.48382401 3.07654536 -2.59085217 3.10228696 -7 2 C-7 1.67 -7 1.34 -7 1 C-2.25 0 -2.25 0 0 0 Z " fill="#464647" transform="translate(451,891)"/>
<path d="M0 0 C2.64 0.33 5.28 0.66 8 1 C8.33 1.99 8.66 2.98 9 4 C6.03 3.01 3.06 2.02 0 1 C0 0.67 0 0.34 0 0 Z " fill="#383939" transform="translate(571,607)"/>
<path d="M0 0 C0.66 0 1.32 0 2 0 C2.33 2.64 2.66 5.28 3 8 C2.34 8 1.68 8 1 8 C0.67 5.36 0.34 2.72 0 0 Z " fill="#2E2E2E" transform="translate(413,328)"/>
</svg>
